<?xml version="1.0" encoding="UTF-8"?>
<!-- Generator: visioncortex VTracer 0.6.1 -->
<svg version="1.1" xmlns="http://www.w3.org/2000/svg" width="1280" height="853">
<path d="M0 0 C422.4 0 844.8 0 1280 0 C1280 281.49 1280 562.98 1280 853 C857.6 853 435.2 853 0 853 C0 571.51 0 290.02 0 0 Z " fill="#215E3A" transform="translate(0,0)"/>
<path d="M0 0 C422.4 0 844.8 0 1280 0 C1280 140.25 1280 280.5 1280 425 C857.6 425 435.2 425 0 425 C0 284.75 0 144.5 0 0 Z " fill="#00A1DD" transform="translate(0,0)"/>
<path d="M0 0 C422.4 0 844.8 0 1280 0 C1280 70.62 1280 141.24 1280 214 C857.6 214 435.2 214 0 214 C0 143.38 0 72.76 0 0 Z " fill="#F7D102" transform="translate(0,425)"/>
<path d="M0 0 C0.33 0 0.66 0 1 0 C1.73896938 9.24497863 2.13865615 18.48125309 2.4375 27.75 C2.79314351 38.33112307 3.24397525 48.90421761 3.8130188 59.47595215 C3.895348 61.02129494 3.97488219 62.56678943 4.05148315 64.11242676 C4.16031856 66.29031753 4.27991802 68.46736722 4.40234375 70.64453125 C4.50276978 72.52168823 4.50276978 72.52168823 4.60522461 74.43676758 C5.02214513 78.19988137 5.86041692 81.40090588 7 85 C7.38744385 83.80737549 7.7748877 82.61475098 8.17407227 81.38598633 C9.64755613 76.85105809 11.12210037 72.31647516 12.59692383 67.78198242 C13.22838642 65.84001541 13.85958232 63.89796165 14.49047852 61.95581055 C18.72519599 48.92045118 23.0104537 35.90316905 27.36192322 22.90629578 C27.90919662 21.27128099 28.4547678 19.6356966 29 18 C29.66 18 30.32 18 31 18 C31.185625 16.1746875 31.185625 16.1746875 31.375 14.3125 C31.78891306 10.93520941 32.54573451 8.10243305 34 5 C35.0733059 8.2199177 34.97085109 8.93516456 34.13671875 12.07421875 C33.80244873 13.38253662 33.80244873 13.38253662 33.46142578 14.71728516 C33.20603027 15.69745605 32.95063477 16.67762695 32.6875 17.6875 C29.60524341 30.0146202 26.92046925 42.41800067 24.31216431 54.85317993 C23.85511172 57.02936083 23.39530526 59.20496521 22.93270874 61.37997437 C22.27333782 64.48360128 21.62360488 67.58909482 20.9765625 70.6953125 C20.77683334 71.62991806 20.57710419 72.56452362 20.37132263 73.52745056 C19.35711114 78.46078222 18.78214391 82.96347726 19 88 C19.64904297 86.99179199 20.29808594 85.98358398 20.96679688 84.94482422 C27.542485 74.74680243 34.19389928 64.60160407 40.91894531 54.50146484 C42.52996663 52.07995751 44.13603458 49.65520715 45.7421875 47.23046875 C46.77574084 45.67688316 47.80958363 44.12349008 48.84375 42.5703125 C49.55621887 41.49234909 49.55621887 41.49234909 50.28308105 40.39260864 C50.95023132 39.39413406 50.95023132 39.39413406 51.63085938 38.37548828 C52.01737671 37.79388947 52.40389404 37.21229065 52.80212402 36.61306763 C54 35 54 35 55.64807129 33.41403198 C57.23035205 32.08512006 57.23035205 32.08512006 57 30 C57.98833937 28.98847378 58.99058887 27.99049945 60 27 C60.9314842 25.62770075 61.82734303 24.23059663 62.6875 22.8125 C63.12449219 22.09707031 63.56148437 21.38164063 64.01171875 20.64453125 C64.33785156 20.10183594 64.66398437 19.55914062 65 19 C65.33 19.66 65.66 20.32 66 21 C65.21231079 22.84886169 65.21231079 22.84886169 63.91650391 25.12670898 C63.4369223 25.98353775 62.9573407 26.84036652 62.46322632 27.72315979 C61.93137726 28.658853 61.3995282 29.5945462 60.8515625 30.55859375 C54.562226 41.84936372 48.70217695 53.32057297 42.95068359 64.89282227 C41.34557326 68.12169544 39.73376596 71.34716356 38.12109375 74.57226562 C37.08815913 76.64303839 36.05559251 78.71399478 35.0234375 80.78515625 C34.30793228 82.21783592 34.30793228 82.21783592 33.57797241 83.67945862 C33.13635773 84.56906784 32.69474304 85.45867706 32.23974609 86.37524414 C31.66116348 87.53812706 31.66116348 87.53812706 31.07089233 88.72450256 C29.94575082 91.11527196 28.95769991 93.5379184 28 96 C28.66 96 29.32 96 30 96 C30.20367188 95.45988281 30.40734375 94.91976562 30.6171875 94.36328125 C32.55803881 91.04628961 35.28946229 88.72275263 38.125 86.1875 C38.71321533 85.65342529 39.30143066 85.11935059 39.9074707 84.5690918 C43.58334823 81.24084365 47.29306272 77.95168678 51.04296875 74.70703125 C53.3855915 72.66366569 55.69273422 70.58319141 58 68.5 C59.66653937 66.99985857 61.33320158 65.49985359 63 64 C63.73863281 63.33226562 64.47726562 62.66453125 65.23828125 61.9765625 C68.69341576 58.89231814 72.00394002 56.35665076 76 54 C81.80291758 49.51926617 86.87886641 44.22564652 92 39 C92.66 39.33 93.32 39.66 94 40 C87 47 87 47 84.59765625 49.375 C81.87286131 52.12847699 79.23517033 54.95119195 76.625 57.8125 C76.14240723 58.34020996 75.65981445 58.86791992 75.16259766 59.41162109 C71.97409519 62.90734628 68.83545387 66.44200078 65.734375 70.015625 C63.71901237 72.32149035 61.67446124 74.59939131 59.625 76.875 C58.86832031 77.71546875 58.11164063 78.5559375 57.33203125 79.421875 C55.77264757 81.14581675 54.20749186 82.86455433 52.63671875 84.578125 C44.37969771 92.35081706 44.37969771 92.35081706 40 102 C40.68602798 101.6558757 41.37205597 101.3117514 42.07887268 100.9571991 C48.56549989 97.70383898 55.05310371 94.45243817 61.54179478 91.20319653 C64.87711398 89.53293512 68.21205946 87.86193661 71.54614258 86.18920898 C74.76776318 84.57293924 77.99037609 82.95866405 81.21366692 81.34572792 C82.43910712 80.73208877 83.66419691 80.1177493 84.88891792 79.50267601 C90.86552279 76.50167029 96.81893817 73.55586641 103 71 C105.11896159 69.92125592 107.21070376 68.80519796 109.30078125 67.671875 C109.86152344 67.45015625 110.42226562 67.2284375 111 67 C111.66 67.33 112.32 67.66 113 68 C112.45359863 68.31855957 111.90719727 68.63711914 111.34423828 68.96533203 C103.35508562 73.68597322 95.62049327 78.76936165 87.875 83.875 C86.46415912 84.80313255 85.0532699 85.73119162 83.64233398 86.65917969 C74.76740955 92.50018063 65.90707089 98.36314286 57.0625 104.25 C56.05106934 104.92272949 55.03963867 105.59545898 53.99755859 106.28857422 C52.62398193 107.20533936 52.62398193 107.20533936 51.22265625 108.140625 C50.42609619 108.67204102 49.62953613 109.20345703 48.80883789 109.75097656 C47.06510144 110.87487159 47.06510144 110.87487159 46 112 C53.55659528 111.43276998 60.8177957 110.12866396 68.21875 108.53125 C69.92653625 108.17069519 69.92653625 108.17069519 71.66882324 107.80285645 C75.280302 107.04025849 78.89030391 106.27098899 82.5 105.5 C87.25915215 104.4835006 92.01971568 103.47402457 96.78125 102.46875 C98.39574036 102.12028015 98.39574036 102.12028015 100.04284668 101.76477051 C105.63698666 100.58439185 111.13948477 99.66070082 116.8392334 99.18688965 C119.91520382 98.92084193 122.9483499 98.46438154 126 98 C123.8114114 100.1885886 122.75331075 100.53622675 119.83984375 101.3828125 C118.92404541 101.65544922 118.00824707 101.92808594 117.06469727 102.20898438 C116.03272217 102.51126953 115.00074707 102.81355469 113.9375 103.125 C104.40432582 105.97683441 94.92998005 108.98002915 85.4765625 112.0859375 C84.37846756 112.44656281 83.28037262 112.80718811 82.14900208 113.17874146 C77.66099889 114.65429133 73.17373317 116.13198474 68.68893433 117.61724854 C65.49301962 118.67552415 62.2954515 119.72867322 59.09765625 120.78125 C58.12369904 121.10588226 57.14974182 121.43051453 56.14627075 121.76498413 C55.24858978 122.0597464 54.35090881 122.35450867 53.42602539 122.65820312 C52.64062881 122.91831177 51.85523224 123.17842041 51.04603577 123.44641113 C49 124 49 124 46 124 C46 124.99 46 125.98 46 127 C46.66 126.67 47.32 126.34 48 126 C60.3072447 125.30417582 72.76193551 126.43305005 85.04223633 127.171875 C88.42686967 127.37436403 91.81198361 127.56651206 95.19726562 127.7578125 C106.86783997 128.43690469 118.42826565 129.30795287 130 131 C126.38385234 133.28190217 123.45665399 133.17928062 119.24389648 133.0703125 C111.16739758 132.9419936 103.1551819 133.35841486 95.09765625 133.875 C93.63938324 133.965082 92.1810849 134.0547548 90.72276306 134.14404297 C86.93989434 134.37672934 83.15738863 134.61485886 79.37493896 134.85424805 C75.4930075 135.09892438 71.61074803 135.33827964 67.72851562 135.578125 C60.15201891 136.04696894 52.57589884 136.52158189 45 137 C50.22836391 138.7524101 55.45758701 140.50221995 60.6875 142.25 C61.48322418 142.51611084 62.27894836 142.78222168 63.0987854 143.05639648 C72.4882528 146.19454513 81.8867831 149.30042295 91.3125 152.328125 C92.14497757 152.59594788 92.97745514 152.86377075 93.8351593 153.13970947 C97.84660242 154.4295417 101.85973452 155.71367939 105.87573242 156.98925781 C113.10442324 159.30023178 120.14438656 161.70806331 127 165 C123.62290232 166.12569923 122.59998686 165.85759894 119.23583984 164.98950195 C118.26393707 164.74548141 117.2920343 164.50146088 116.29067993 164.25004578 C115.23311493 163.97803848 114.17554993 163.70603119 113.0859375 163.42578125 C103.71088316 161.09411663 94.32083834 158.95706501 84.8515625 157.04296875 C83.68139587 156.80635529 82.51122925 156.56974182 81.30560303 156.32595825 C77.74607153 155.60975172 74.1856309 154.89821882 70.625 154.1875 C66.97171449 153.4550594 63.31870694 152.72128069 59.66610718 151.98542786 C57.42177747 151.53359289 55.17702344 151.08385906 52.93179321 150.63652039 C51.93159149 150.4357338 50.93138977 150.2349472 49.90087891 150.02807617 C49.02364166 149.85298019 48.14640442 149.67788422 47.24258423 149.4974823 C45 149 45 149 42 148 C42 148.66 42 149.32 42 150 C42.87567627 150.2578125 43.75135254 150.515625 44.65356445 150.78125 C48.03673991 152.01338044 50.56966478 153.4842357 53.54296875 155.5 C54.60410889 156.21381836 55.66524902 156.92763672 56.75854492 157.66308594 C57.90161264 158.44193595 59.04459557 159.2209104 60.1875 160 C61.37623127 160.80311639 62.5654487 161.60551362 63.75512695 162.40722656 C65.60876607 163.65681252 67.46188243 164.90712896 69.31315613 166.16021729 C73.69341822 169.12502181 78.09083776 172.06274713 82.5 174.984375 C83.10644852 175.38660278 83.71289703 175.78883057 84.33772278 176.20324707 C86.69029662 177.7635156 89.04290165 179.32372649 91.39755249 180.88085938 C97.74086876 185.07839467 103.98991038 189.33452171 110 194 C109.34 194.33 108.68 194.66 108 195 C105.74560547 194.05395508 105.74560547 194.05395508 102.8671875 192.51953125 C101.76930908 191.94146729 100.67143066 191.36340332 99.5402832 190.76782227 C98.94510895 190.450159 98.34993469 190.13249573 97.73672485 189.8052063 C94.51257072 188.08602738 91.27327335 186.39581478 88.03515625 184.703125 C87.33325668 184.33554581 86.63135712 183.96796661 85.90818787 183.58924866 C77.32857147 179.10729049 68.6824526 174.7577519 60.02764893 170.42318726 C58.21569256 169.51513175 56.40461683 168.60531692 54.59442139 167.6937561 C52.0402058 166.40769231 49.48341266 165.12691058 46.92578125 163.84765625 C46.1531041 163.45773499 45.38042694 163.06781372 44.58433533 162.66607666 C40.96875563 160.69767076 40.96875563 160.69767076 37 160 C37.85271484 160.94359375 37.85271484 160.94359375 38.72265625 161.90625 C42.33999966 165.9161265 45.95321262 169.92745355 49.5 174 C52.13689636 177.02754767 54.81016569 180.01937279 57.5 183 C60.76390848 186.61676345 63.98790949 190.26389608 67.1875 193.9375 C69.27211164 196.30964429 71.38428644 198.65556065 73.5 201 C79.43530645 207.58022939 85.24472571 214.26211791 91 221 C88 221 88 221 86.125 219.34765625 C85.42375 218.59355469 84.7225 217.83945312 84 217.0625 C80.77605856 213.72452848 77.50899542 210.69800084 73.875 207.8125 C68.44807146 203.46943061 63.40274929 198.78760025 58.34619141 194.02172852 C54.61542418 190.50566451 50.85213709 187.05379886 46.9609375 183.71484375 C43.47391065 180.66543182 40.10101407 177.48848084 36.7109375 174.33203125 C33.94179604 171.94993117 31.05226415 169.99947785 28 168 C28.42958008 168.85843506 28.85916016 169.71687012 29.30175781 170.60131836 C33.04078663 178.0753532 36.77461841 185.55195406 40.50280762 193.03140259 C42.6889715 197.41647923 44.87687509 201.80068683 47.06494141 206.18481445 C48.19617765 208.45236783 49.32670191 210.72027652 50.45654297 212.98852539 C52.10976111 216.30710019 53.76556785 219.62437232 55.421875 222.94140625 C55.92297791 223.94877335 56.42408081 224.95614044 56.94036865 225.99403381 C58.99054863 230.09472019 61.04639706 234.13710066 63.41113281 238.06616211 C63.93545898 239.03432861 64.45978516 240.00249512 65 241 C64.67 241.66 64.34 242.32 64 243 C57.09106803 233.94788913 50.76136684 224.64397183 44.71118164 214.99755859 C38.97456884 205.8778951 32.98815525 196.93436144 26.95288086 188.01074219 C26.22206299 186.92438477 25.49124512 185.83802734 24.73828125 184.71875 C23.76435425 183.27918945 23.76435425 183.27918945 22.77075195 181.81054688 C20.97059656 178.95333071 19.45858878 176.04371793 18 173 C17.67 173.33 17.34 173.66 17 174 C17.23672169 175.68155021 17.55727661 177.35132362 17.90869141 179.01269531 C18.24497055 180.62268402 18.24497055 180.62268402 18.58804321 182.26519775 C18.84000458 183.44096375 19.09196594 184.61672974 19.3515625 185.828125 C19.60747162 187.04207947 19.86338074 188.25603394 20.12704468 189.5067749 C20.67425902 192.09677233 21.22365468 194.68618859 21.77685547 197.27490234 C22.60743339 201.16216418 23.42702568 205.05170215 24.24609375 208.94140625 C26.84871831 221.24203025 29.4655417 233.52603296 32.63442993 245.69586182 C32.83031708 246.47653015 33.02620422 247.25719849 33.22802734 248.06152344 C33.40216156 248.73101013 33.57629578 249.40049683 33.75570679 250.090271 C34.03876081 252.30300737 33.66100969 253.8854313 33 256 C30.89897836 250.46581128 28.90485989 244.90780382 26.99609375 239.3046875 C26.71630173 238.48613785 26.4365097 237.6675882 26.14823914 236.82423401 C25.24328022 234.17495777 24.34026983 231.52502292 23.4375 228.875 C23.12963562 227.97258575 22.82177124 227.07017151 22.50457764 226.14041138 C16.92558452 209.7858995 11.42723055 193.40547059 6 177 C4.89104421 191.1596895 3.8715976 205.32421119 3.00872803 219.5010376 C2.92108282 220.93404271 2.83182632 222.36695038 2.74078369 223.79974365 C2.17638524 232.72723791 1.92189047 241.59031796 2.01806641 250.53637695 C1.99598858 254.76905404 1.59804782 258.81366523 1 263 C0.67 263 0.34 263 0 263 C-1.47841878 252.19624859 -2.47305287 241.45106923 -3.0703125 230.5625 C-3.15666741 229.06076405 -3.24349966 227.55905549 -3.33078003 226.05737305 C-3.55576752 222.16488967 -3.77440893 218.27207679 -3.99157715 214.37915039 C-4.21569551 210.38274895 -4.44602565 206.38670561 -4.67578125 202.390625 C-5.12315311 194.59408126 -5.56379897 186.79717757 -6 179 C-8.9381158 186.10184109 -11.51915984 193.27530372 -13.93359375 200.5703125 C-14.29340836 201.65021454 -14.65322296 202.73011658 -15.02394104 203.84274292 C-15.78081453 206.11636739 -16.53624012 208.39047432 -17.2902832 210.66503906 C-18.42773461 214.09554796 -19.56991768 217.52445233 -20.71289062 220.953125 C-24.58914637 232.60122439 -28.40746784 244.26092818 -32 256 C-33.07862452 252.76412643 -32.92920771 251.83728808 -32.1875 248.625 C-31.38618698 244.99617749 -30.75126273 241.39554577 -30.24609375 237.71484375 C-28.40825816 225.56016528 -25.67221997 213.55220726 -23.16259766 201.52270508 C-22.4775414 198.23324984 -21.79718356 194.94284811 -21.1171875 191.65234375 C-20.90472382 190.64195541 -20.69226013 189.63156708 -20.47335815 188.59056091 C-20.18272995 187.18242882 -20.18272995 187.18242882 -19.88623047 185.74584961 C-19.71461395 184.92346298 -19.54299744 184.10107635 -19.36618042 183.25376892 C-18.89308551 180.72251599 -18.89308551 180.72251599 -19 177 C-24.67484002 184.64194101 -30.01316589 192.44966686 -35.1875 200.4375 C-35.92715492 201.57487221 -36.66706779 202.71207671 -37.40722656 203.84912109 C-38.89532376 206.13616815 -40.3817564 208.42428257 -41.86669922 210.71337891 C-43.84626543 213.76315235 -45.83026146 216.80997688 -47.81640625 219.85546875 C-48.9610542 221.61190312 -50.10559244 223.36840899 -51.25 225.125 C-51.76199951 225.91060303 -52.27399902 226.69620605 -52.80151367 227.50561523 C-55.92114757 232.30445177 -58.98382454 237.1354673 -62 242 C-62.33 241.34 -62.66 240.68 -63 240 C-62.3203125 238.28515625 -62.3203125 238.28515625 -61.125 236.0625 C-58.59682312 231.25169981 -56.26918614 226.36529795 -53.96484375 221.4453125 C-48.95725838 210.81607071 -43.71226191 200.3110367 -38.4375 189.8125 C-37.51478295 187.97210096 -36.5922561 186.13160655 -35.66992188 184.29101562 C-33.44879277 179.85958102 -31.22513902 175.42942238 -29 171 C-33.33273758 171 -36.84323602 175.43571423 -39.75 178.1875 C-40.82488262 179.18948716 -41.90040352 180.19079005 -42.9765625 181.19140625 C-43.49637695 181.67625488 -44.01619141 182.16110352 -44.55175781 182.66064453 C-46.98934987 184.91496517 -49.49975473 187.08277485 -52.0078125 189.2578125 C-54.36020635 191.31500399 -56.68034966 193.40596915 -59 195.5 C-61.98062721 198.18983431 -64.97245233 200.86310364 -68 203.5 C-75.92813247 210.42315793 -83.63534884 217.47524773 -91 225 C-91 222 -91 222 -89.74658203 220.45361328 C-89.17278809 219.91462402 -88.59899414 219.37563477 -88.0078125 218.8203125 C-87.38519531 218.22089844 -86.76257813 217.62148438 -86.12109375 217.00390625 C-84.79840597 215.75887137 -83.47549206 214.51407669 -82.15234375 213.26953125 C-78.67133844 209.91771789 -76.75321186 207.52737037 -75 203 C-72.92285776 200.41760695 -70.6197773 198.06394494 -68.3125 195.6875 C-67.03299811 194.3445651 -65.75434172 193.00082409 -64.4765625 191.65625 C-63.86844727 191.01945313 -63.26033203 190.38265625 -62.63378906 189.7265625 C-60.22312578 187.17901158 -57.92487276 184.54374393 -55.63671875 181.88671875 C-53.62126228 179.56341213 -51.56151538 177.28251535 -49.5 175 C-46.63577276 171.82134644 -43.77410175 168.6408543 -40.9375 165.4375 C-40.36902344 164.79683594 -39.80054688 164.15617188 -39.21484375 163.49609375 C-37.89493939 162.19181849 -37.89493939 162.19181849 -38 161 C-44.09023666 162.73711334 -49.56145532 165.65123489 -55.1875 168.5 C-56.25540771 169.03753906 -57.32331543 169.57507813 -58.42358398 170.12890625 C-69.02903503 175.48505077 -79.5425698 181.01201137 -90.01953125 186.61474609 C-93.19690866 188.31254803 -96.3794356 190.00038954 -99.5625 191.6875 C-101.07275757 192.50057617 -101.07275757 192.50057617 -102.61352539 193.33007812 C-104.01332642 194.06967773 -104.01332642 194.06967773 -105.44140625 194.82421875 C-106.27357666 195.26854248 -107.10574707 195.71286621 -107.96313477 196.1706543 C-108.63530029 196.44433838 -109.30746582 196.71802246 -110 197 C-110.66 196.67 -111.32 196.34 -112 196 C-110.98679687 195.41992188 -110.98679687 195.41992188 -109.953125 194.828125 C-109.06109375 194.30734375 -108.1690625 193.7865625 -107.25 193.25 C-105.92742188 192.48429687 -105.92742188 192.48429687 -104.578125 191.703125 C-102.00422822 190.13955444 -102.00422822 190.13955444 -100.25024414 188.17211914 C-97.54392561 185.55975981 -94.56448309 183.57259029 -91.41796875 181.54296875 C-90.77479202 181.12257324 -90.1316153 180.70217773 -89.46894836 180.26904297 C-87.37808141 178.90394224 -85.2828634 177.54568655 -83.1875 176.1875 C-81.74710696 175.24889694 -80.30700459 174.30984766 -78.8671875 173.37036133 C-75.96834688 171.47993771 -73.06777136 169.59222559 -70.16552734 167.70703125 C-66.36335049 165.23713261 -62.56544547 162.76075996 -58.76953125 160.28125 C-53.51564997 156.8501196 -48.25891033 153.423416 -43 150 C-50.99424814 150.54674786 -58.69348299 151.77678969 -66.53515625 153.3984375 C-68.27411415 153.75187729 -68.27411415 153.75187729 -70.04820251 154.11245728 C-72.48332684 154.60887177 -74.91785622 155.10821297 -77.35180664 155.61035156 C-81.05391628 156.37323119 -84.75819688 157.12478172 -88.46289062 157.875 C-90.84128361 158.36130584 -93.21954349 158.84826317 -95.59765625 159.3359375 C-96.69271988 159.55792816 -97.78778351 159.77991882 -98.91603088 160.00863647 C-104.64984311 161.19821261 -110.20590637 162.57377919 -115.76023865 164.43740845 C-118.24549722 165.0616649 -120.44752577 165.09598027 -123 165 C-120 163 -120 163 -116 163 C-115.505 162.01 -115.505 162.01 -115 161 C-114.34 161.33 -113.68 161.66 -113 162 C-113 161.34 -113 160.68 -113 160 C-111.16078979 159.38729248 -111.16078979 159.38729248 -109.28442383 158.76220703 C-104.47193741 157.15806444 -99.66080091 155.54989903 -94.84977722 153.94137573 C-90.05670996 152.33922032 -85.26310825 150.73866688 -80.46948242 149.13818359 C-77.93902964 148.29301138 -75.40871944 147.44742792 -72.87866211 146.60107422 C-69.21514933 145.37587146 -65.551 144.15258973 -61.88671875 142.9296875 C-60.7544133 142.55053192 -59.62210785 142.17137634 -58.45549011 141.7807312 C-57.40372086 141.43011627 -56.3519516 141.07950134 -55.26831055 140.71826172 C-54.34503464 140.40976288 -53.42175873 140.10126404 -52.47050476 139.78341675 C-50.32493142 139.10303834 -48.19031249 138.51470633 -46 138 C-48.30904719 136.84547641 -49.93860955 136.73907809 -52.51171875 136.53515625 C-53.47843506 136.4582959 -54.44515137 136.38143555 -55.44116211 136.30224609 C-56.51245361 136.22312988 -57.58374512 136.14401367 -58.6875 136.0625 C-59.80713135 135.97822754 -60.9267627 135.89395508 -62.08032227 135.80712891 C-72.85858693 135.02794254 -83.64603531 134.4363998 -94.4375 133.875 C-95.277435 133.83061798 -96.11737 133.78623596 -96.98275757 133.74050903 C-105.28812759 133.30540256 -113.56609855 132.8774957 -121.88623047 133.01806641 C-124.65820765 132.99437429 -127.29456195 132.58495958 -130 132 C-126.59240374 129.96534756 -123.73637176 129.64330063 -119.80126953 129.40576172 C-117.91748093 129.2858638 -117.91748093 129.2858638 -115.99563599 129.1635437 C-114.62471223 129.08528616 -113.25377053 129.0073423 -111.8828125 128.9296875 C-110.46471309 128.84350602 -109.04665317 128.75667266 -107.62863159 128.66921997 C-104.6514783 128.48745154 -101.67405658 128.31154324 -98.69628906 128.14013672 C-94.91943646 127.92256517 -91.14337102 127.69384283 -87.36743355 127.46098137 C-84.43328057 127.28077618 -81.49886984 127.10510207 -78.56435776 126.93085098 C-77.17474364 126.84811629 -75.78518653 126.76441735 -74.39569473 126.67965317 C-48.7439655 125.12801725 -48.7439655 125.12801725 -45 127 C-45 126.34 -45 125.68 -45 125 C-46.23556641 124.58862793 -47.47113281 124.17725586 -48.74414062 123.75341797 C-53.43690075 122.1892027 -58.12698522 120.6170781 -62.81677246 119.04397583 C-67.48256003 117.47968995 -72.14946358 115.91874597 -76.81640625 114.35791016 C-79.2581779 113.54064168 -81.69958884 112.72229468 -84.140625 111.90283203 C-97.69282332 107.35426547 -111.23527853 102.86613806 -125 99 C-115.6835434 95.88469688 -102.48724374 101.01832206 -93.125 102.93359375 C-91.7430831 103.21501362 -90.36116577 103.49643143 -88.97924805 103.77784729 C-86.11147048 104.36286993 -83.24430203 104.95078482 -80.37744141 105.5402832 C-76.71325279 106.29305693 -73.04676637 107.03395922 -69.37963867 107.77226162 C-66.53698109 108.34671857 -63.69610637 108.92963577 -60.85565186 109.51487923 C-59.50396227 109.79188852 -58.15162907 110.06577732 -56.79864502 110.33639336 C-54.91212256 110.71457196 -53.02825532 111.10592308 -51.14453125 111.49780273 C-50.07565674 111.71605209 -49.00678223 111.93430145 -47.90551758 112.15916443 C-44.8820227 113.03414177 -42.61200634 114.26425669 -40 116 C-40.144375 116.68964844 -40.28875 117.37929687 -40.4375 118.08984375 C-43.11511553 131.64527236 -42.51700667 143.83128565 -34.71484375 155.75390625 C-27.54417195 165.14601624 -16.52626309 171.18463974 -4.8515625 172.81640625 C7.18909962 173.59162696 17.6386228 171.33485253 27.12109375 163.69140625 C33.9595866 157.53534096 40.33275143 149.54681141 41.17700195 139.99804688 C41.63442386 122.98413888 39.39485816 112.15468181 28 99 C27.34 98.67 26.68 98.34 26 98 C26 97.34 26 96.68 26 96 C24.824375 95.62875 24.824375 95.62875 23.625 95.25 C20 94 20 94 17.8671875 93.046875 C11.58525459 90.26872645 5.6241242 89.17952776 -1.19140625 88.39453125 C-4 88 -4 88 -5 87 C-5.11575504 84.1715507 -5.15910864 81.37597313 -5.1484375 78.546875 C-5.14521988 77.21665314 -5.14521988 77.21665314 -5.14193726 75.85955811 C-5.06141873 65.41557288 -4.46695115 55.00295357 -3.828125 44.58056641 C-3.62441136 41.24034835 -3.43271061 37.8995874 -3.2421875 34.55859375 C-2.56123585 22.97019848 -1.67321757 11.49128886 0 0 Z " fill="#F6D002" transform="translate(1050,91)"/>
<path d="M0 0 C3.33913655 2.50435242 5.81760469 5.26662108 8.21875 8.6640625 C8.68152344 9.31632812 9.14429688 9.96859375 9.62109375 10.640625 C15.91885337 20.09639162 16.44183973 30.61934073 15.21875 41.6640625 C12.35256408 52.98119145 6.14098268 59.60224838 -3.12109375 66.18359375 C-12.25269492 71.26564492 -24.85500016 71.10093669 -34.92578125 69.01171875 C-44.23121715 65.59728322 -53.64496323 58.15778447 -58 49.140625 C-62.43696781 38.33343912 -63.33961952 28.68297829 -58.78125 17.6640625 C-52.6632233 5.29823278 -44.50947672 -1.53559956 -31.4765625 -6.15234375 C-20.23816652 -9.27897921 -9.5789971 -6.15359624 0 0 Z " fill="#F7D102" transform="translate(1072.78125,190.3359375)"/>
<path d="M0 0 C1.84189213 2.76283819 2.56581696 4.52236803 3.43432617 7.65307617 C3.70078445 8.59580887 3.96724274 9.53854156 4.24177551 10.50984192 C4.52679428 11.53139877 4.81181305 12.55295563 5.10546875 13.60546875 C8.51741365 25.56132393 12.30130232 37.36677312 16.25415039 49.15356445 C17.33579566 52.38203231 18.40747294 55.6137042 19.47851562 58.84570312 C20.168692 60.91425572 20.85942479 62.98262277 21.55078125 65.05078125 C21.86847977 66.00994949 22.18617828 66.96911774 22.51350403 67.95735168 C22.81109116 68.84065659 23.10867828 69.72396149 23.4152832 70.6340332 C23.67396683 71.4076973 23.93265045 72.18136139 24.19917297 72.97846985 C25.02030095 75.25715227 25.02030095 75.25715227 27 78 C27.1171875 80.453125 27.1171875 80.453125 26 83 C23.54189284 84.65949477 20.88134042 85.68101928 18.125 86.75 C17.02478516 87.20439453 17.02478516 87.20439453 15.90234375 87.66796875 C12.95718603 88.8750006 10.0205147 89.99316177 7 91 C1.66571802 81.84890755 -3.35393442 72.60022934 -8.08984375 63.12109375 C-8.72603142 61.85262166 -9.36239285 60.5842367 -9.99891663 59.31593323 C-11.31488018 56.69137198 -12.6278351 54.06533337 -13.9387207 51.43823242 C-15.61523283 48.07934983 -17.30092229 44.72516397 -18.98897457 41.37206936 C-20.2979959 38.76875515 -21.60146855 36.16269293 -22.90335274 33.5558033 C-23.52303568 32.31694857 -24.14459429 31.07903013 -24.76811028 29.84210014 C-25.63492219 28.12083925 -26.49330409 26.39534093 -27.35131836 24.66967773 C-27.84014999 23.69264389 -28.32898163 22.71561005 -28.83262634 21.70896912 C-29.94990071 19.11625877 -30.56650102 16.78102676 -31 14 C-27.64252148 17.04915744 -25.64773241 20.13669989 -23.5 24.1171875 C-18.51153531 33.12478655 -12.75094337 41.59265902 -7 50.125 C-5.94747633 51.69371506 -4.8953911 53.26272439 -3.84375 54.83203125 C-1.82407515 57.84532473 0.19988722 60.85566947 2.2265625 63.86425781 C3.98815063 66.48315015 5.73415702 69.11096262 7.4609375 71.75292969 C8.17507813 72.84250977 8.88921875 73.93208984 9.625 75.0546875 C10.23601562 75.99554199 10.84703125 76.93639648 11.4765625 77.90576172 C12.83317808 80.10834684 12.83317808 80.10834684 15 81 C14.69599525 79.56633087 14.69599525 79.56633087 14.385849 78.10369873 C12.47796747 69.10058493 10.57933528 60.09556404 8.68976498 51.08858871 C7.71799686 46.45796336 6.74297146 41.82807391 5.76049805 37.19970703 C4.81265744 32.73390374 3.8733788 28.2663782 2.94003487 23.7975235 C2.58226068 22.09203064 2.22139468 20.38718338 1.85740471 18.68300629 C1.34850228 16.29778802 0.85059521 13.91052063 0.35522461 11.52246094 C0.20201752 10.81683517 0.04881042 10.11120941 -0.10903931 9.38420105 C-0.80426068 5.97524402 -1.26313542 3.30493899 0 0 Z " fill="#F3D004" transform="translate(1017,97)"/>
<path d="M0 0 C4.79648442 2.99598039 8.78929017 6.41546506 12.875 10.3125 C14.11640489 11.48130053 15.35858619 12.649277 16.6015625 13.81640625 C17.19098633 14.37086426 17.78041016 14.92532227 18.38769531 15.49658203 C20.89749007 17.83687823 23.48088779 20.08606553 26.078125 22.328125 C28.41105074 24.35758073 30.70511245 26.427647 33 28.5 C35.98062721 31.18983431 38.97245233 33.86310364 42 36.5 C45.88191819 39.88102552 49.70184168 43.32844226 53.5234375 46.77734375 C56.9863781 49.88525101 60.48734304 52.94850192 64 56 C63.13375 56.94875 62.2675 57.8975 61.375 58.875 C58.16205316 62.59805925 55.72623522 66.59883978 53.296875 70.86328125 C52 73 52 73 50 75 C49.34 74.34 48.68 73.68 48 73 C41.94910546 67.7232408 35.22590385 63.55516048 28.43017578 59.33203125 C19.00695025 53.44363732 9.79978669 47.23523805 0.58325195 41.03051758 C-6.16800962 36.49461926 -12.96067341 32.08180687 -20 28 C-19.34 27.67 -18.68 27.34 -18 27 C-16.04446411 27.70581055 -16.04446411 27.70581055 -13.62158203 28.88671875 C-12.71463593 29.32435547 -11.80768982 29.76199219 -10.8732605 30.21289062 C-9.88641266 30.69951172 -8.89956482 31.18613281 -7.8828125 31.6875 C-6.34537888 32.43483398 -6.34537888 32.43483398 -4.77688599 33.19726562 C-1.51295049 34.78825146 1.74434065 36.39215301 5 38 C6.02162231 38.50354004 7.04324463 39.00708008 8.0958252 39.52587891 C14.11158181 42.49505312 20.1159741 45.486424 26.11376953 48.49169922 C29.18501226 50.03005965 32.25843441 51.56400552 35.33203125 53.09765625 C37.30742032 54.08568031 39.28268568 55.07395177 41.2578125 56.0625 C42.16604767 56.51560547 43.07428284 56.96871094 44.01004028 57.43554688 C48.10113478 59.48871269 52.12258441 61.55721817 56 64 C56 63.34 56 62.68 56 62 C55.13181641 61.89751953 55.13181641 61.89751953 54.24609375 61.79296875 C51.12072505 60.68957771 50.06132724 58.94051662 48.0625 56.3125 C44.40049227 51.66108656 40.56711539 47.30031477 36.5 43 C31.74919391 37.96124544 27.315274 32.79634565 22.984375 27.390625 C20.69981742 24.63836272 18.24734295 22.15670285 15.6796875 19.671875 C13.2445759 17.2480895 11.01618836 14.66296402 8.77734375 12.05859375 C7.5354671 10.62020035 6.27611887 9.19678943 5.00390625 7.78515625 C4.36324219 7.07230469 3.72257813 6.35945312 3.0625 5.625 C2.47597656 4.97789062 1.88945313 4.33078125 1.28515625 3.6640625 C0 2 0 2 0 0 Z " fill="#F7D102" transform="translate(960,132)"/>
<path d="M0 0 C3.35747852 3.04915744 5.35226759 6.13669989 7.5 10.1171875 C12.48846469 19.12478655 18.24905663 27.59265902 24 36.125 C25.05252367 37.69371506 26.1046089 39.26272439 27.15625 40.83203125 C29.17592485 43.84532473 31.19988722 46.85566947 33.2265625 49.86425781 C34.98815063 52.48315015 36.73415702 55.11096262 38.4609375 57.75292969 C39.17507813 58.84250977 39.88921875 59.93208984 40.625 61.0546875 C41.23601562 61.99554199 41.84703125 62.93639648 42.4765625 63.90576172 C43.83317808 66.10834684 43.83317808 66.10834684 46 67 C46.625 70.0625 46.625 70.0625 47 73 C40.25 77 40.25 77 38 77 C32.66571802 67.84890755 27.64606558 58.60022934 22.91015625 49.12109375 C22.27396858 47.85262166 21.63760715 46.5842367 21.00108337 45.31593323 C19.68511982 42.69137198 18.3721649 40.06533337 17.0612793 37.43823242 C15.38476717 34.07934983 13.69907771 30.72516397 12.01102543 27.37206936 C10.7020041 24.76875515 9.39853145 22.16269293 8.09664726 19.5558033 C7.47696432 18.31694857 6.85540571 17.07903013 6.23188972 15.84210014 C5.36507781 14.12083925 4.50669591 12.39534093 3.64868164 10.66967773 C3.15985001 9.69264389 2.67101837 8.71561005 2.16737366 7.70896912 C1.05009929 5.11625877 0.43349898 2.78102676 0 0 Z " fill="#F7D102" transform="translate(986,111)"/>
</svg>
