<svg width="50" height="50" viewBox="0 0 50 50" fill="none" xmlns="http://www.w3.org/2000/svg">
<path d="M23.1458 47.9167C22.9043 47.9164 22.6646 47.8741 22.4375 47.7917C21.9995 47.6313 21.6279 47.3285 21.3824 46.9319C21.1369 46.5353 21.0316 46.0677 21.0833 45.6042L22.6875 30.8333H10.4167C10.0382 30.8339 9.6667 30.7314 9.34211 30.5367C9.01752 30.3421 8.75208 30.0627 8.5743 29.7286C8.39653 29.3944 8.31314 29.0182 8.33308 28.6402C8.35302 28.2623 8.47555 27.8969 8.68749 27.5833L25.125 3C25.385 2.61529 25.766 2.32845 26.2076 2.18502C26.6492 2.04159 27.1261 2.0498 27.5625 2.20833C27.982 2.36409 28.3403 2.6508 28.5842 3.02602C28.8281 3.40124 28.9446 3.84502 28.9167 4.29167L27.3125 19.1667H39.5833C39.9618 19.1661 40.3333 19.2686 40.6579 19.4633C40.9825 19.6579 41.2479 19.9373 41.4257 20.2714C41.6035 20.6056 41.6868 20.9818 41.6669 21.3598C41.647 21.7377 41.5244 22.1031 41.3125 22.4167L24.875 47C24.6839 47.2827 24.4263 47.5142 24.1248 47.674C23.8232 47.8339 23.4871 47.9172 23.1458 47.9167Z" fill="url(#paint0_linear_5_63)"/>
<defs>
<linearGradient id="paint0_linear_5_63" x1="25" y1="2.08313" x2="25" y2="47.9167" gradientUnits="userSpaceOnUse">
<stop stop-color="#FF2020"/>
<stop offset="0.390625" stop-color="#FFEC84"/>
<stop offset="0.729167" stop-color="#28A75A" stop-opacity="0.270833"/>
<stop offset="1" stop-color="#0500FF" stop-opacity="0"/>
</linearGradient>
</defs>
</svg>
